<svg width="32" height="32" viewBox="0 0 32 32" fill="none" xmlns="http://www.w3.org/2000/svg">
<path fill-rule="evenodd" clip-rule="evenodd" d="M24.9428 7.05703C25.4635 7.57773 25.4635 8.42195 24.9428 8.94265L8.94277 24.9426C8.42207 25.4633 7.57785 25.4633 7.05715 24.9426C6.53645 24.4219 6.53645 23.5777 7.05715 23.057L23.0572 7.05703C23.5779 6.53633 24.4221 6.53633 24.9428 7.05703Z" fill="url(#paint0_linear_14190_1086)"/>
<path fill-rule="evenodd" clip-rule="evenodd" d="M7.05715 7.05703C7.57785 6.53633 8.42207 6.53633 8.94277 7.05703L24.9428 23.057C25.4635 23.5777 25.4635 24.4219 24.9428 24.9426C24.4221 25.4633 23.5779 25.4633 23.0572 24.9426L7.05715 8.94265C6.53645 8.42195 6.53645 7.57773 7.05715 7.05703Z" fill="url(#paint1_linear_14190_1086)"/>
<defs>
<linearGradient id="paint0_linear_14190_1086" x1="15.6638" y1="-28.0418" x2="-56.48" y2="29.1754" gradientUnits="userSpaceOnUse">
<stop stop-color="#F83600"/>
<stop offset="1" stop-color="#F9D423"/>
</linearGradient>
<linearGradient id="paint1_linear_14190_1086" x1="15.6638" y1="-28.0418" x2="-56.48" y2="29.1754" gradientUnits="userSpaceOnUse">
<stop stop-color="#F83600"/>
<stop offset="1" stop-color="#F9D423"/>
</linearGradient>
</defs>
</svg>
