<svg width="24" height="25" viewBox="0 0 24 25" fill="none" xmlns="http://www.w3.org/2000/svg">
<path fill-rule="evenodd" clip-rule="evenodd" d="M7 12.5C7 9.57413 9 7.5 12 7.5C15.0017 7.5 17 9.48181 17 12.5745C17 15.5748 15.0017 17.5 12.002 17.5C9.00234 17.5 7 15.5748 7 12.5ZM9.00234 12.5745C9.00234 14.2293 10.3516 15.5748 12.002 15.5748C13.6524 15.5748 15.0017 14.2293 15.0017 12.5745C15.0017 10.9197 13.6564 9.57413 12.002 9.57413C10.3476 9.57413 9.00234 10.9197 9.00234 12.5745ZM17.8047 8.84714C18.399 8.84714 18.8809 8.36917 18.8809 7.77071C18.8809 7.17627 18.399 6.69429 17.8047 6.69429C17.2104 6.69429 16.7285 7.17627 16.7285 7.77071C16.7285 8.36516 17.2064 8.84714 17.8047 8.84714ZM19.4831 5.0917C20.5392 6.14403 20.8685 7.42128 20.9368 8.86321C21.0211 10.3493 21.0211 14.7996 20.9368 16.2857C20.8645 17.7276 20.5352 19.0049 19.4831 20.0572C18.431 21.1136 17.154 21.4429 15.7124 21.5112C14.2267 21.5955 9.77334 21.5955 8.28756 21.5112C6.84596 21.4389 5.57301 21.1096 4.5169 20.0572C3.46079 19.0049 3.13151 17.7276 3.06325 16.2857C2.97892 14.7996 2.97892 10.3453 3.06325 8.85919C3.13553 7.41726 3.46079 6.14001 4.5169 5.08768C5.57301 4.03536 6.84997 3.706 8.28756 3.63772C9.77334 3.55338 14.2267 3.55338 15.7124 3.63772C17.154 3.71002 18.431 4.03937 19.4831 5.0917Z" fill="#363636"/>
</svg>
