<svg width="24" height="25" viewBox="0 0 24 25" fill="none" xmlns="http://www.w3.org/2000/svg">
<path d="M7.02901 21.5745H3.29726V8.88942H7.02901V21.5745ZM5.16112 7.15906C3.96809 7.15906 3 6.11576 3 4.85616C3 3.59656 3.96809 2.57446 5.16112 2.57446C6.35416 2.57446 7.32225 3.59656 7.32225 4.85616C7.32225 6.11576 6.35416 7.15906 5.16112 7.15906ZM20.996 21.5745H17.2723V15.3995C17.2723 13.9278 17.2441 12.0405 15.3321 12.0405C13.3919 12.0405 13.0946 13.6394 13.0946 15.2934V21.5745H9.36688V8.88942H12.946V10.6198H12.9982C13.4963 9.62312 14.7135 8.57134 16.5291 8.57134C20.3051 8.57134 21 11.1966 21 14.6064V21.5745H20.996Z" fill="#363636"/>
</svg>
