<svg width="16" height="16" viewBox="0 0 24 25" fill="none" xmlns="http://www.w3.org/2000/svg">
<path fill-rule="evenodd" clip-rule="evenodd" d="M11 4.75415C7.13401 4.75415 4 7.88816 4 11.7542C4 15.6201 7.13401 18.7542 11 18.7542C14.866 18.7542 18 15.6201 18 11.7542C18 7.88816 14.866 4.75415 11 4.75415ZM2 11.7542C2 6.78359 6.02944 2.75415 11 2.75415C15.9706 2.75415 20 6.78359 20 11.7542C20 16.7247 15.9706 20.7542 11 20.7542C6.02944 20.7542 2 16.7247 2 11.7542Z" fill="#A7A7A7"/>
<path fill-rule="evenodd" clip-rule="evenodd" d="M15.9429 16.6969C16.3334 16.3064 16.9666 16.3064 17.3571 16.6969L21.7071 21.0469C22.0977 21.4375 22.0977 22.0706 21.7071 22.4612C21.3166 22.8517 20.6834 22.8517 20.2929 22.4612L15.9429 18.1112C15.5524 17.7206 15.5524 17.0875 15.9429 16.6969Z" fill="#A7A7A7"/>
</svg>
