<svg width="22" height="22" viewBox="0 0 24 25" fill="none" xmlns="http://www.w3.org/2000/svg">
<g opacity="0.9">
<path fill-rule="evenodd" clip-rule="evenodd" d="M3.75 6.75415C3.75 6.33994 4.08579 6.00415 4.5 6.00415H17.2499C17.6641 6.00415 17.9999 6.33994 17.9999 6.75415C17.9999 7.16836 17.6641 7.50415 17.2499 7.50415H4.5C4.08579 7.50415 3.75 7.16836 3.75 6.75415ZM17.25 10.5042C17.6642 10.5042 18 10.8399 18 11.2542L17.7754 20.7894C17.6401 20.9222 17.4546 21.0042 17.25 21.0042C17.1483 21.0042 17.0513 20.9839 16.9629 20.9472C16.8744 20.9106 16.7916 20.8564 16.7197 20.7845L12.9697 17.0345C12.6768 16.7416 12.6768 16.2667 12.9697 15.9738C13.2626 15.6809 13.7374 15.6809 14.0303 15.9738L16.5 18.4435V11.2542C16.5 10.8399 16.8358 10.5042 17.25 10.5042ZM18 11.2542L17.781 20.7838L21.5302 17.0351C21.8231 16.7422 21.8231 16.2673 21.5303 15.9744C21.2374 15.6815 20.7625 15.6815 20.4696 15.9743L18 18.4436V11.2542ZM4.5 12.0042C4.08579 12.0042 3.75 12.3399 3.75 12.7542C3.75 13.1684 4.08579 13.5042 4.5 13.5042H11.2499C11.6641 13.5042 11.9999 13.1684 11.9999 12.7542C11.9999 12.3399 11.6641 12.0042 11.2499 12.0042H4.5ZM4.5 18.0042C4.08579 18.0042 3.75 18.3399 3.75 18.7542C3.75 19.1684 4.08579 19.5042 4.5 19.5042H9.75C10.1642 19.5042 10.5 19.1684 10.5 18.7542C10.5 18.3399 10.1642 18.0042 9.75 18.0042H4.5Z" fill="#A7A7A7"/>
</g>
</svg>
