<svg width="16" height="16" viewBox="0 0 24 25" fill="none" xmlns="http://www.w3.org/2000/svg">
<path fill-rule="evenodd" clip-rule="evenodd" d="M16.7197 4.72382C16.7916 4.65191 16.8744 4.59766 16.9629 4.56106L17.7803 4.72378L17.7808 4.72431L21.5302 8.47312C21.8231 8.766 21.8231 9.24087 21.5303 9.53378C21.2374 9.8267 20.7625 9.82674 20.4696 9.53386L18 7.06462V14.2542C18 14.6684 17.6642 15.0042 17.25 15.0042C16.8358 15.0042 16.5 14.6684 16.5 14.2542V7.06481L14.0303 9.53448C13.7374 9.82737 13.2626 9.82737 12.9697 9.53448C12.6768 9.24159 12.6768 8.76671 12.9697 8.47382L16.7197 4.72382ZM16.9629 4.56106L17.7754 4.71893C17.6401 4.58608 17.4546 4.50415 17.25 4.50415C17.1483 4.50415 17.0513 4.52439 16.9629 4.56106ZM4.5 12.0042C4.08579 12.0042 3.75 12.3399 3.75 12.7542C3.75 13.1684 4.08579 13.5042 4.5 13.5042H11.2499C11.6641 13.5042 11.9999 13.1684 11.9999 12.7542C11.9999 12.3399 11.6641 12.0042 11.2499 12.0042H4.5ZM3.75 6.75415C3.75 6.33994 4.08579 6.00415 4.5 6.00415H9.74991C10.1641 6.00415 10.4999 6.33994 10.4999 6.75415C10.4999 7.16836 10.1641 7.50415 9.74991 7.50415H4.5C4.08579 7.50415 3.75 7.16836 3.75 6.75415ZM4.5 18.0042C4.08579 18.0042 3.75 18.3399 3.75 18.7542C3.75 19.1684 4.08579 19.5042 4.5 19.5042H17.2499C17.6641 19.5042 17.9999 19.1684 17.9999 18.7542C17.9999 18.3399 17.6641 18.0042 17.2499 18.0042H4.5Z" fill="#363636"/>
</svg>
