<svg width="24" height="25" viewBox="0 0 24 25" fill="none" xmlns="http://www.w3.org/2000/svg">
<path d="M22.4986 8.46959C22.6497 7.95396 22.4986 7.57446 21.7716 7.57446H19.3661C18.7535 7.57446 18.4717 7.90034 18.3206 8.26334C18.3206 8.26334 17.0954 11.2787 15.3637 13.234C14.8042 13.7991 14.5469 13.9806 14.2406 13.9806C14.0895 13.9806 13.8567 13.7991 13.8567 13.2835V8.46959C13.8567 7.85084 13.6852 7.57446 13.1787 7.57446H9.39687C9.01297 7.57446 8.78426 7.86321 8.78426 8.13134C8.78426 8.71709 9.65009 8.85321 9.73993 10.5032V14.0837C9.73993 14.8675 9.60108 15.0118 9.29477 15.0118C8.47795 15.0118 6.49309 11.9841 5.31687 8.51909C5.08 7.84671 4.84721 7.57446 4.23051 7.57446H1.82498C1.13886 7.57446 1 7.90034 1 8.26334C1 8.90684 1.81682 12.1037 4.80228 16.3277C6.79123 19.2111 9.59291 20.7745 12.1414 20.7745C13.6729 20.7745 13.8608 20.428 13.8608 19.8298C13.8608 17.0743 13.7219 16.8145 14.4897 16.8145C14.845 16.8145 15.4577 16.996 16.8871 18.3861C18.5207 20.0361 18.7903 20.7745 19.7051 20.7745H22.1106C22.7967 20.7745 23.1439 20.428 22.9438 19.7432C22.4864 18.3036 19.3947 15.3418 19.2558 15.1438C18.9005 14.6818 19.0026 14.4756 19.2558 14.0631C19.2599 14.059 22.1964 9.88446 22.4986 8.46959Z" fill="#363636"/>
</svg>
